<svg width="32" height="26" viewBox="0 0 32 26" fill="none" xmlns="http://www.w3.org/2000/svg">
<path d="M7.64033 7.17859C7.64033 7.17859 7.74207 7.07682 7.94554 6.87327C8.14901 6.66973 8.25075 6.28028 8.25075 5.70493C8.25075 5.12958 8.04728 4.63836 7.64033 4.23128C7.23338 3.82419 6.74233 3.62065 6.16718 3.62065C5.59203 3.62065 5.10098 3.82419 4.69403 4.23128C4.28708 4.63836 4.08361 5.12958 4.08361 5.70493C4.08361 6.28028 4.28708 6.7715 4.69403 7.17859C5.10098 7.58567 5.59203 7.78922 6.16718 7.78922C6.74233 7.78922 7.23338 7.58567 7.64033 7.17859ZM25.6193 15.0842C25.6193 15.6596 25.4185 16.1481 25.017 16.5497L17.0245 24.5612C16.6013 24.9629 16.1076 25.1637 15.5433 25.1637C14.9681 25.1637 14.4798 24.9629 14.0782 24.5612L2.43954 12.9022C2.02717 12.5006 1.67719 11.9524 1.38962 11.2576C1.10204 10.5628 0.958252 9.92778 0.958252 9.35243V2.5785C0.958252 2.01401 1.16444 1.52551 1.57681 1.11299C1.98919 0.700476 2.47752 0.494217 3.04182 0.494217H9.81343C10.3886 0.494217 11.0234 0.638056 11.7179 0.92573C12.4125 1.21341 12.9659 1.5635 13.3783 1.97602L25.017 13.6024C25.4185 14.0258 25.6193 14.5197 25.6193 15.0842ZM31.87 15.0842C31.87 15.6596 31.6692 16.1481 31.2677 16.5497L23.2753 24.5612C22.852 24.9629 22.3583 25.1637 21.794 25.1637C21.4033 25.1637 21.0832 25.0877 20.8336 24.9357C20.584 24.7837 20.2964 24.5395 19.9708 24.203L27.6215 16.5497C28.023 16.1481 28.2237 15.6596 28.2237 15.0842C28.2237 14.5197 28.023 14.0258 27.6215 13.6024L15.9828 1.97602C15.5704 1.5635 15.0169 1.21341 14.3224 0.92573C13.6279 0.638056 12.993 0.494217 12.4179 0.494217H16.0641C16.6393 0.494217 17.2741 0.638056 17.9687 0.92573C18.6632 1.21341 19.2166 1.5635 19.629 1.97602L31.2677 13.6024C31.6692 14.0258 31.87 14.5197 31.87 15.0842Z" fill="white"/>
</svg>
