<svg width="149" height="145" viewBox="0 0 149 145" fill="none" xmlns="http://www.w3.org/2000/svg">
<rect width="149" height="145" rx="25" fill="#FFF9F9"/>
<path d="M53.4961 123C96.1395 123 119.467 84.5174 119.467 51.2038C119.476 50.1218 119.462 49.0398 119.425 47.9578C123.965 44.3753 127.884 39.9425 131 34.8662C126.756 36.899 122.261 38.2415 117.659 38.8506C122.508 35.6947 126.14 30.7281 127.878 24.8745C123.325 27.8183 118.338 29.882 113.139 30.9741C109.644 26.9207 105.02 24.2354 99.9821 23.3342C94.9443 22.433 89.7742 23.3662 85.2727 25.9893C80.7712 28.6124 77.1894 32.7789 75.0823 37.8435C72.9752 42.9081 72.4602 48.5881 73.6172 54.0037C64.3983 53.5026 55.3793 50.8955 47.1457 46.3515C38.9121 41.8075 31.6481 35.4284 25.8253 27.6282C22.8702 33.1905 21.9688 39.7689 23.304 46.0286C24.6392 52.2882 28.111 57.7602 33.0149 61.3341C29.3382 61.2047 25.7419 60.1293 22.52 58.1958V58.5419C22.529 64.3676 24.3832 70.0115 27.7697 74.521C31.1562 79.0304 35.8676 82.1293 41.1085 83.2944C39.1188 83.8917 37.0633 84.1893 34.9994 84.179C33.544 84.1955 32.0909 84.0485 30.6631 83.7406C32.1419 88.7579 35.0261 93.1451 38.9109 96.2863C42.7957 99.4274 47.4861 101.165 52.3238 101.255C44.1037 108.277 33.9559 112.089 23.5087 112.077C21.6675 112.093 19.8274 111.977 18 111.731C28.6038 119.096 40.9197 123.006 53.4961 123Z" fill="#0E223B"/>
</svg>
